<mxfile host="app.diagrams.net" agent="Mozilla/5.0 (Windows NT 10.0; Win64; x64) AppleWebKit/537.36 (KHTML, like Gecko) Chrome/131.0.0.0 Safari/537.36" version="24.9.1">
  <diagram id="LldZepaCDoXS-muDTJjg" name="Page-1">
    <mxGraphModel dx="869" dy="452" grid="1" gridSize="10" guides="1" tooltips="1" connect="1" arrows="1" fold="1" page="1" pageScale="1" pageWidth="850" pageHeight="1100" math="0" shadow="0">
      <root>
        <mxCell id="0" />
        <mxCell id="1" parent="0" />
        <mxCell id="RWctR8MDuskukS0d0tIQ-1" value="IDLE" style="ellipse;whiteSpace=wrap;html=1;aspect=fixed;" vertex="1" parent="1">
          <mxGeometry x="160" y="340" width="100" height="100" as="geometry" />
        </mxCell>
        <mxCell id="RWctR8MDuskukS0d0tIQ-3" value="ACT" style="ellipse;whiteSpace=wrap;html=1;aspect=fixed;" vertex="1" parent="1">
          <mxGeometry x="390" y="340" width="100" height="100" as="geometry" />
        </mxCell>
        <mxCell id="RWctR8MDuskukS0d0tIQ-4" value="DONE" style="ellipse;whiteSpace=wrap;html=1;aspect=fixed;" vertex="1" parent="1">
          <mxGeometry x="270" y="480" width="100" height="100" as="geometry" />
        </mxCell>
        <mxCell id="RWctR8MDuskukS0d0tIQ-5" value="" style="endArrow=classic;html=1;rounded=0;exitX=0.982;exitY=0.597;exitDx=0;exitDy=0;exitPerimeter=0;" edge="1" parent="1" source="RWctR8MDuskukS0d0tIQ-1">
          <mxGeometry width="50" height="50" relative="1" as="geometry">
            <mxPoint x="400" y="450" as="sourcePoint" />
            <mxPoint x="390" y="400" as="targetPoint" />
          </mxGeometry>
        </mxCell>
        <mxCell id="RWctR8MDuskukS0d0tIQ-6" value="i_valid &amp;amp;&amp;amp; i_counter == DEPTH" style="text;html=1;align=center;verticalAlign=middle;whiteSpace=wrap;rounded=0;" vertex="1" parent="1">
          <mxGeometry x="270" y="370" width="120" height="30" as="geometry" />
        </mxCell>
        <mxCell id="RWctR8MDuskukS0d0tIQ-7" value="" style="endArrow=classic;html=1;rounded=0;exitX=0.5;exitY=1;exitDx=0;exitDy=0;entryX=1;entryY=0.4;entryDx=0;entryDy=0;entryPerimeter=0;" edge="1" parent="1" source="RWctR8MDuskukS0d0tIQ-3" target="RWctR8MDuskukS0d0tIQ-4">
          <mxGeometry width="50" height="50" relative="1" as="geometry">
            <mxPoint x="380" y="450" as="sourcePoint" />
            <mxPoint x="430" y="400" as="targetPoint" />
          </mxGeometry>
        </mxCell>
        <mxCell id="RWctR8MDuskukS0d0tIQ-8" value="" style="endArrow=classic;html=1;rounded=0;exitX=0.022;exitY=0.401;exitDx=0;exitDy=0;entryX=0.5;entryY=1;entryDx=0;entryDy=0;exitPerimeter=0;" edge="1" parent="1" source="RWctR8MDuskukS0d0tIQ-4" target="RWctR8MDuskukS0d0tIQ-1">
          <mxGeometry width="50" height="50" relative="1" as="geometry">
            <mxPoint x="260" y="420" as="sourcePoint" />
            <mxPoint x="190" y="500" as="targetPoint" />
          </mxGeometry>
        </mxCell>
        <mxCell id="RWctR8MDuskukS0d0tIQ-9" value="!i_valid" style="text;html=1;align=center;verticalAlign=middle;whiteSpace=wrap;rounded=0;" vertex="1" parent="1">
          <mxGeometry x="395" y="480" width="60" height="30" as="geometry" />
        </mxCell>
      </root>
    </mxGraphModel>
  </diagram>
</mxfile>
